<mxfile host="65bd71144e">
    <diagram id="QbynmC-79arP5-CReBdr" name="ページ1">
        <mxGraphModel dx="2713" dy="830" grid="0" gridSize="10" guides="1" tooltips="1" connect="1" arrows="1" fold="1" page="1" pageScale="1" pageWidth="980" pageHeight="1390" background="#ffffff" math="0" shadow="0">
            <root>
                <mxCell id="0"/>
                <mxCell id="1" parent="0"/>
                <mxCell id="2" value="" style="shape=cylinder3;whiteSpace=wrap;html=1;boundedLbl=1;backgroundOutline=1;size=15;" vertex="1" parent="1">
                    <mxGeometry x="518" y="292" width="109" height="130" as="geometry"/>
                </mxCell>
                <mxCell id="3" value="" style="shape=flexArrow;endArrow=classic;startArrow=classic;html=1;startWidth=18;startSize=6.11;strokeColor=#000000;" edge="1" parent="1">
                    <mxGeometry width="100" height="100" relative="1" as="geometry">
                        <mxPoint x="417.5" y="212" as="sourcePoint"/>
                        <mxPoint x="417" y="292" as="targetPoint"/>
                        <Array as="points"/>
                    </mxGeometry>
                </mxCell>
                <mxCell id="4" value="" style="shape=link;html=1;" edge="1" parent="1">
                    <mxGeometry width="100" relative="1" as="geometry">
                        <mxPoint x="468" y="341.5" as="sourcePoint"/>
                        <mxPoint x="518" y="341" as="targetPoint"/>
                    </mxGeometry>
                </mxCell>
                <mxCell id="10" value="" style="endArrow=none;dashed=1;html=1;strokeColor=#000000;" edge="1" parent="1">
                    <mxGeometry width="50" height="50" relative="1" as="geometry">
                        <mxPoint x="338" y="252" as="sourcePoint"/>
                        <mxPoint x="648" y="446" as="targetPoint"/>
                        <Array as="points">
                            <mxPoint x="648" y="252"/>
                            <mxPoint x="648" y="331"/>
                        </Array>
                    </mxGeometry>
                </mxCell>
                <mxCell id="11" value="" style="endArrow=none;dashed=1;html=1;strokeColor=#000000;" edge="1" parent="1">
                    <mxGeometry width="50" height="50" relative="1" as="geometry">
                        <mxPoint x="645" y="444" as="sourcePoint"/>
                        <mxPoint x="338" y="252" as="targetPoint"/>
                        <Array as="points">
                            <mxPoint x="338" y="444"/>
                        </Array>
                    </mxGeometry>
                </mxCell>
                <mxCell id="12" value="" style="whiteSpace=wrap;html=1;aspect=fixed;" vertex="1" parent="1">
                    <mxGeometry x="368" y="292" width="105" height="100" as="geometry"/>
                </mxCell>
                <mxCell id="13" value="" style="rounded=0;whiteSpace=wrap;html=1;" vertex="1" parent="1">
                    <mxGeometry x="353" y="169" width="224" height="35" as="geometry"/>
                </mxCell>
                <mxCell id="17" value="カレンダーUI" style="text;strokeColor=none;fillColor=none;html=1;fontSize=25;fontStyle=1;verticalAlign=middle;align=center;" vertex="1" parent="1">
                    <mxGeometry x="392.5" y="171.5" width="145" height="30" as="geometry"/>
                </mxCell>
                <mxCell id="37" style="edgeStyle=none;html=1;exitX=0;exitY=1;exitDx=0;exitDy=0;fontSize=25;" edge="1" parent="1" source="18" target="36">
                    <mxGeometry relative="1" as="geometry"/>
                </mxCell>
                <mxCell id="18" value="" style="shape=parallelogram;perimeter=parallelogramPerimeter;whiteSpace=wrap;html=1;fixedSize=1;fontSize=25;" vertex="1" parent="1">
                    <mxGeometry x="385" y="122" width="160" height="38" as="geometry"/>
                </mxCell>
                <mxCell id="19" value="" style="rounded=0;whiteSpace=wrap;html=1;fontSize=25;" vertex="1" parent="1">
                    <mxGeometry x="405" y="57" width="140" height="60" as="geometry"/>
                </mxCell>
                <mxCell id="20" value="" style="rounded=0;whiteSpace=wrap;html=1;fontSize=25;" vertex="1" parent="1">
                    <mxGeometry x="417.5" y="63" width="115" height="48" as="geometry"/>
                </mxCell>
                <mxCell id="22" value="DB&lt;br&gt;" style="text;html=1;strokeColor=none;fillColor=none;align=center;verticalAlign=middle;whiteSpace=wrap;rounded=0;fontSize=25;fontColor=#000000;" vertex="1" parent="1">
                    <mxGeometry x="547" y="263" width="45" height="20" as="geometry"/>
                </mxCell>
                <mxCell id="25" value="User" style="text;html=1;strokeColor=none;fillColor=none;align=center;verticalAlign=middle;whiteSpace=wrap;rounded=0;fontSize=25;" vertex="1" parent="1">
                    <mxGeometry x="550" y="332.5" width="45" height="19" as="geometry"/>
                </mxCell>
                <mxCell id="27" value="Task" style="text;html=1;strokeColor=none;fillColor=none;align=center;verticalAlign=middle;whiteSpace=wrap;rounded=0;fontSize=25;" vertex="1" parent="1">
                    <mxGeometry x="550" y="392" width="45" height="20" as="geometry"/>
                </mxCell>
                <mxCell id="28" value="Subject" style="text;html=1;strokeColor=none;fillColor=none;align=center;verticalAlign=middle;whiteSpace=wrap;rounded=0;fontSize=25;" vertex="1" parent="1">
                    <mxGeometry x="550" y="362" width="45" height="20" as="geometry"/>
                </mxCell>
                <mxCell id="31" value="APS" style="text;html=1;strokeColor=none;fillColor=none;align=center;verticalAlign=middle;whiteSpace=wrap;rounded=0;fontSize=25;" vertex="1" parent="1">
                    <mxGeometry x="398" y="332" width="45" height="20" as="geometry"/>
                </mxCell>
                <mxCell id="34" value="&lt;b&gt;&lt;font style=&quot;font-size: 32px&quot;&gt;全体図&lt;/font&gt;&lt;/b&gt;" style="text;html=1;strokeColor=none;fillColor=none;align=center;verticalAlign=middle;whiteSpace=wrap;rounded=0;fontSize=25;fontColor=#000000;" vertex="1" parent="1">
                    <mxGeometry x="110" y="77" width="130" height="20" as="geometry"/>
                </mxCell>
                <mxCell id="36" value="&lt;font style=&quot;font-size: 26px&quot;&gt;・ユーザーの履修している&lt;br&gt;科目の登録&lt;/font&gt;" style="text;html=1;strokeColor=none;fillColor=none;align=center;verticalAlign=middle;whiteSpace=wrap;rounded=0;fontSize=25;fontColor=#000000;" vertex="1" parent="1">
                    <mxGeometry x="-35" y="160" width="420" height="20" as="geometry"/>
                </mxCell>
                <mxCell id="40" value="&lt;font style=&quot;font-size: 26px&quot;&gt;・課題の登録&lt;/font&gt;" style="text;html=1;strokeColor=none;fillColor=none;align=center;verticalAlign=middle;whiteSpace=wrap;rounded=0;fontSize=25;fontColor=#000000;" vertex="1" parent="1">
                    <mxGeometry x="20" y="250" width="160" height="20" as="geometry"/>
                </mxCell>
                <mxCell id="41" value="&lt;font style=&quot;font-size: 26px&quot;&gt;・科目の登録&lt;/font&gt;" style="text;html=1;strokeColor=none;fillColor=none;align=center;verticalAlign=middle;whiteSpace=wrap;rounded=0;fontSize=25;fontColor=#000000;" vertex="1" parent="1">
                    <mxGeometry x="20" y="320" width="160" height="20" as="geometry"/>
                </mxCell>
                <mxCell id="43" value="" style="ellipse;whiteSpace=wrap;html=1;aspect=fixed;fontSize=25;fillColor=none;strokeColor=#000000;strokeWidth=3;" vertex="1" parent="1">
                    <mxGeometry x="500" y="490" width="190" height="190" as="geometry"/>
                </mxCell>
                <mxCell id="46" value="" style="ellipse;whiteSpace=wrap;html=1;aspect=fixed;fontSize=25;fillColor=none;perimeterSpacing=0;strokeWidth=3;strokeColor=#000000;" vertex="1" parent="1">
                    <mxGeometry x="690" y="382" width="190" height="190" as="geometry"/>
                </mxCell>
                <mxCell id="UMbrKBmcJjreXiSFzlcf-47" value="" style="ellipse;whiteSpace=wrap;html=1;aspect=fixed;fontSize=25;fillColor=none;strokeColor=#000000;strokeWidth=3;" vertex="1" parent="1">
                    <mxGeometry x="60" y="392" width="190" height="190" as="geometry"/>
                </mxCell>
                <mxCell id="UMbrKBmcJjreXiSFzlcf-48" value="" style="ellipse;whiteSpace=wrap;html=1;aspect=fixed;fontSize=25;fillColor=none;strokeColor=#000000;strokeWidth=3;" vertex="1" parent="1">
                    <mxGeometry x="283" y="510" width="190" height="190" as="geometry"/>
                </mxCell>
            </root>
        </mxGraphModel>
    </diagram>
</mxfile>